<svg xmlns="http://www.w3.org/2000/svg" viewBox="0 0 364.02 363.38"><defs><style>.cls-1{fill:#d45948;}.cls-2{fill:#e5942c;}.cls-3{fill:#f4f5f5;}.cls-4{fill:#3f5d75;}.cls-5{fill:#0c3756;}.cls-6{fill:#5e99a0;}</style></defs><title>Asset 11</title><g id="Layer_2" data-name="Layer 2"><g id="Layer_1-2" data-name="Layer 1"><path class="cls-1" d="M322.43,224.16c-18.35-3.7-36.33-2-54,3.71a5.93,5.93,0,0,1-2-.07c2.25-7.25,5.4-14.17,6.62-21.79,3.28-20.32,2.3-40.12-5.94-59.24a16,16,0,0,1-.63-2.4c11.44.88,22.38,4.12,33.35,7.12,8.44,2.31,16.75,5.06,25.12,7.61,3.78,7.22,3,15.24,3.63,22.92,1,13-1.64,25.7-4,38.4C324.32,221.79,324.05,223.44,322.43,224.16ZM300,208.63a52.54,52.54,0,0,1,7,.06c4.38.59,5.53-1.43,6.2-5.48a95.4,95.4,0,0,0,.69-28.82c-.4-2.88-1.31-4.56-4.14-5.34-6.08-1.69-12.18-3.38-18.17-5.38-3.41-1.14-4.17-.16-3.53,3.07a92.86,92.86,0,0,1,.09,37.68c-.61,2.88,0,4.48,3.37,4.25C294.27,208.48,297.12,208.63,300,208.63Z"/><path class="cls-1" d="M97.94,228.27c-12.73-3.74-25.6-6.8-39-6-5.92.34-11.8,1.42-17.7,2.16-2.39-4.84-2.93-10.19-3.69-15.38a147.48,147.48,0,0,1,.3-46.65A20.09,20.09,0,0,1,39,159.12c15.28-4.39,30.38-9.46,46-12.48,4.71-.9,9.45-1.7,14.17-2.55-2.9,8.25-6.56,16.21-8.24,24.9-3.4,17.55-1.37,34.53,4.56,51.22C96.47,222.85,97.14,225.58,97.94,228.27ZM50.8,190.16c.11,4.22-.16,9.54.62,14.83.37,2.49,1.23,3.8,4.1,3.7,6.31-.2,12.63-.12,18.95,0,2.64,0,3.37-.58,2.68-3.46-2.33-9.82-1.93-19.86-.8-29.75,1.51-13.27,1.79-13.37-11.19-9.52-15.59,4.62-14,2.53-14.36,18.65C50.77,186.07,50.8,187.57,50.8,190.16Z"/><path class="cls-2" d="M213.1,186.12A30.55,30.55,0,0,1,182.46,217c-16.37,0-29.48-12.83-29.53-28.85-.05-19.42,11.7-32.5,29.35-32.67A30.57,30.57,0,0,1,213.1,186.12Z"/><path class="cls-3" d="M163.21,299.14c2.38,0,4.43-.33,6.34.05a64.39,64.39,0,0,0,28.21-.6c3.16-.77,3.41.17,2.9,2.78-1,5.22-1.89,10.47-2.85,15.7-.28,1.48-.58,2.73-2.58,3.08a85,85,0,0,1-26.3,0c-2.28-.31-2-1.74-2.13-3.17A83,83,0,0,0,163.21,299.14Z"/><ellipse class="cls-4" cx="182.92" cy="285.51" rx="14.1" ry="0.4"/><path class="cls-5" d="M267.11,146.77a16,16,0,0,1-.63-2.4,6.7,6.7,0,0,0-3.63-1.46,379.31,379.31,0,0,0-135-4.68c-9.63,1.39-19.35,2.57-28.62,5.86-2.9,8.25-6.56,16.21-8.24,24.9-3.4,17.55-1.37,34.53,4.56,51.22.94,2.64,1.61,5.37,2.41,8.06,23.42,8.8,36.5,26.3,44.28,49.58A257.85,257.85,0,0,1,154.37,331a3.74,3.74,0,0,0,2.73,1.89c14.87,2.28,29.79,3,44.68.63,2.72-.43,6.53,1.17,8.32-2.65,1.85-9.56,2.49-19.33,4.85-28.81,4.91-19.73,10.86-38.93,24.11-55.06,7-8.51,16.2-13.47,25.83-18a9.35,9.35,0,0,0,1.54-1.15c2.25-7.25,5.4-14.17,6.62-21.79C276.33,185.69,275.35,165.89,267.11,146.77ZM182.46,217c-16.37,0-29.48-12.83-29.53-28.85-.05-19.42,11.7-32.5,29.35-32.67a30.76,30.76,0,0,1,.18,61.52Z"/><path class="cls-6" d="M182.33,0A181.69,181.69,0,1,0,364,181.69,181.68,181.68,0,0,0,182.33,0Zm0,332.49a150.8,150.8,0,1,1,150.8-150.8A150.8,150.8,0,0,1,182.33,332.49Z"/><path class="cls-4" d="M327.25,178.46a168.63,168.63,0,0,1-25,88.54l28.85,22.12a203.68,203.68,0,0,0,0-221.31L302.21,89.93A168.59,168.59,0,0,1,327.25,178.46Z"/><path class="cls-4" d="M36.49,179.46a168.64,168.64,0,0,0,25,88.54L32.68,290.12a203.68,203.68,0,0,1,0-221.31L61.54,90.93A168.6,168.6,0,0,0,36.49,179.46Z"/></g></g></svg>